<svg xmlns="http://www.w3.org/2000/svg" version="1.1" xmlns:xlink="http://www.w3.org/1999/xlink" xmlns:svgjs="http://svgjs.dev/svgjs" viewBox="0 0 800 800"><defs><filter id="bbburst-blur-1" x="-100%" y="-100%" width="400%" height="400%"><feGaussianBlur in="SourceGraphic" stdDeviation="1"></feGaussianBlur></filter><filter id="bbburst-blur-2" x="-100%" y="-100%" width="400%" height="400%"><feGaussianBlur in="SourceGraphic" stdDeviation="2"></feGaussianBlur></filter><filter id="bbburst-blur-3" x="-100%" y="-100%" width="400%" height="400%"><feGaussianBlur in="SourceGraphic" stdDeviation="4"></feGaussianBlur></filter><filter id="bbburst-blur-4" x="-100%" y="-100%" width="400%" height="400%"><feGaussianBlur in="SourceGraphic" stdDeviation="12"></feGaussianBlur></filter><symbol id="bbburst-shape-1" viewBox="0 0 194 167"><path d="m97 0 96.129 166.5H.871L97 0Z"></path></symbol><symbol id="bbburst-shape-4" viewBox="0 0 149 143"><path d="M71.647 2.781c.898-2.764 4.808-2.764 5.706 0l15.445 47.534a3 3 0 0 0 2.853 2.073h49.98c2.906 0 4.115 3.719 1.764 5.427L106.96 87.193a2.999 2.999 0 0 0-1.09 3.354l15.445 47.534c.898 2.764-2.266 5.062-4.617 3.354l-40.435-29.378a3 3 0 0 0-3.526 0l-40.435 29.378c-2.351 1.708-5.515-.59-4.617-3.354L43.13 90.547a3 3 0 0 0-1.09-3.354L1.605 57.815c-2.35-1.708-1.142-5.427 1.764-5.427h49.98a3 3 0 0 0 2.853-2.073L71.647 2.781Z"></path></symbol><symbol id="bbburst-shape-6" viewBox="0 0 133 116"><path d="M59.7487 10.2513c-13.6683-13.66839-35.8291-13.66839-49.4974 0-13.66839 13.6683-13.66839 35.8291 0 49.4974l49.4974-49.4974ZM66.5 66.5 41.7513 91.2487 66.5 115.997l24.7487-24.7483L66.5 66.5Zm56.249-6.7513c13.668-13.6683 13.668-35.8291 0-49.4974-13.669-13.66839-35.8294-13.66839-49.4977 0l49.4977 49.4974Zm-112.4977 0 31.5 31.5 49.4974-49.4974-31.5-31.5-49.4974 49.4974Zm80.9974 31.5 31.5003-31.5-49.4977-49.4974-31.5 31.5 49.4974 49.4974Z"></path></symbol><symbol id="bbburst-shape-8" viewBox="0 0 87 168"><path d="m12 12 31.2546 18.0749c16.4102 9.4902 20.014 31.6325 7.4603 45.8369L36.3296 92.1884c-12.5684 14.2206-8.9394 36.3916 7.5068 45.8636L75 156" stroke-width="14" stroke-linecap="round" stroke-linejoin="round"></path></symbol><symbol id="bbburst-shape-10" viewBox="0 0 145 145"><circle cx="72.5" cy="72.5" r="61.5" fill="none" stroke-width="22"></circle></symbol></defs><use xlink:href="#bbburst-shape-1" width="16.706361541998607" opacity="0.7657969363039233" transform="matrix(0.9759907311807409,0.21781205808972737,-0.21781205808972737,0.9759907311807409,464.37846782614145,-96.57144376051502)" fill="#ff5c58" filter="url(#bbburst-blur-1)"></use><use xlink:href="#bbburst-shape-8" width="41.865875386244255" opacity="-0.08205061612064268" transform="matrix(1.431005577627713,-1.0073346200733773,1.0073346200733773,1.431005577627713,320.39058263641607,-486.4087418578782)" fill="none" stroke="#ff5c58" filter="url(#bbburst-blur-4)"></use><use xlink:href="#bbburst-shape-1" width="32.12334978627525" opacity="0.24719225203154394" transform="matrix(1.0533617238076307,0.6730000585564733,-0.6730000585564733,1.0533617238076307,989.343864831541,1.5159536005203904)" fill="#2c2891" filter="url(#bbburst-blur-3)"></use><use xlink:href="#bbburst-shape-8" width="34.7308528262557" opacity="0.15434578464215887" transform="matrix(0.9573711793978014,0.8037041898972923,-0.8037041898972923,0.9573711793978014,979.1531066517778,-260.67666112771883)" fill="none" stroke="#ffa6d5" filter="url(#bbburst-blur-3)"></use><use xlink:href="#bbburst-shape-6" width="22.46855908794289" opacity="0.4482441784125454" transform="matrix(0.9110262645380001,0.41234833008263516,-0.41234833008263516,0.9110262645380001,583.6035250454219,-215.6452871144514)" fill="#ffa6d5" filter="url(#bbburst-blur-2)"></use><use xlink:href="#bbburst-shape-4" width="20.9937076134403" opacity="0.7255880179451408" transform="matrix(0.9998981025748707,-0.014275309704990243,0.014275309704990243,0.9998981025748707,324.0682260073429,-107.87101999196045)" fill="#ffbd9b" filter="url(#bbburst-blur-1)"></use><use xlink:href="#bbburst-shape-10" width="18.37042860438453" opacity="0.7107491826065836" transform="matrix(0.9997375977692771,0.02290710820935629,-0.02290710820935629,0.9997375977692771,271.33926454135815,-19.952853405547444)" fill="none" stroke="#ff5c58" filter="url(#bbburst-blur-1)"></use><use xlink:href="#bbburst-shape-6" width="27.61482771654198" opacity="0.47630687968199614" transform="matrix(0.9888305076137215,-0.14904438000941145,0.14904438000941145,0.9888305076137215,179.40623763126172,-177.41012406176708)" fill="#00a19d" filter="url(#bbburst-blur-2)"></use><use xlink:href="#bbburst-shape-1" width="20.064709838292885" opacity="0.6275305945460222" transform="matrix(0.9665594020708067,-0.2564428245604167,0.2564428245604167,0.9665594020708067,361.14458592579115,-134.70520553582188)" fill="#ffa6d5" filter="url(#bbburst-blur-1)"></use><use xlink:href="#bbburst-shape-4" width="30.96645365700317" opacity="0.16902023123957188" transform="matrix(1.2457718112430642,-0.10272582105865685,0.10272582105865685,1.2457718112430642,419.3531288051625,-462.02554168310587)" fill="#00a19d" filter="url(#bbburst-blur-3)"></use><use xlink:href="#bbburst-shape-4" width="10.351083315161613" opacity="0.9537994582113359" transform="matrix(0.7194336463040489,-0.6945611769784291,0.6945611769784291,0.7194336463040489,120.4756677891221,95.13587805959838)" fill="#ffbd9b"></use><use xlink:href="#bbburst-shape-10" width="15.260491651114812" opacity="0.6485392981521629" transform="matrix(0.935049889721343,0.3545161544021716,-0.3545161544021716,0.935049889721343,420.8174009260485,-86.50165343943212)" fill="none" stroke="#ffa6d5" filter="url(#bbburst-blur-1)"></use><use xlink:href="#bbburst-shape-4" width="14.965156655820685" opacity="0.8384224024160862" transform="matrix(0.9930483146585287,-0.11770745411338959,0.11770745411338959,0.9930483146585287,411.32503456485415,-27.183118783307634)" fill="#ffa6d5"></use><use xlink:href="#bbburst-shape-10" width="12.717079426231443" opacity="0.7958592140566736" transform="matrix(0.9886590475444211,0.1501775206499227,-0.1501775206499227,0.9886590475444211,477.01160899892255,-85.2969889809682)" fill="none" stroke="#00a19d"></use><use xlink:href="#bbburst-shape-10" width="21.687433684315536" opacity="0.6473493692205083" transform="matrix(0.9642665802568897,0.2649338826946889,-0.2649338826946889,0.9642665802568897,464.72680322153815,-144.2565425767924)" fill="none" stroke="#ff5c58" filter="url(#bbburst-blur-1)"></use><use xlink:href="#bbburst-shape-6" width="17.47187659644997" opacity="0.7720406382178748" transform="matrix(0.9279956829783402,0.3725909451040964,-0.3725909451040964,0.9279956829783402,458.5354429186984,-35.56151044319381)" fill="#ffa6d5" filter="url(#bbburst-blur-1)"></use><use xlink:href="#bbburst-shape-10" width="32.16732552003132" opacity="0.562018518568054" transform="matrix(0.8357393134260013,-0.5491263971020114,0.5491263971020114,0.8357393134260013,38.25894640330205,223.8500726504003)" fill="none" stroke="#2c2891" filter="url(#bbburst-blur-1)"></use><use xlink:href="#bbburst-shape-1" width="10.79284122550034" opacity="0.8652175550622495" transform="matrix(0.8635880384357079,-0.5041980760284258,0.5041980760284258,0.8635880384357079,178.7909613820167,-1.5017077538261105)" fill="#ffa6d5"></use><use xlink:href="#bbburst-shape-8" width="23.82832720277993" opacity="0.7253130547149971" transform="matrix(0.7862087707515513,0.6179609767560851,-0.6179609767560851,0.7862087707515513,713.5329831514284,175.85950671418306)" fill="none" stroke="#2c2891" filter="url(#bbburst-blur-1)"></use><use xlink:href="#bbburst-shape-6" width="19.200361084685152" opacity="0.7267355469644462" transform="matrix(0.9610166039665246,-0.2764906633155052,0.2764906633155052,0.9610166039665246,384.0519962671092,-47.566476735790104)" fill="#ffbd9b" filter="url(#bbburst-blur-1)"></use><use xlink:href="#bbburst-shape-4" width="34.097131686511354" opacity="0.3226382150902517" transform="matrix(1.0404255546099004,0.6928309067259351,-0.6928309067259351,1.0404255546099004,491.71115147444425,-282.50886972601813)" fill="#ffbd9b" filter="url(#bbburst-blur-3)"></use><use xlink:href="#bbburst-shape-4" width="34.03648083994449" opacity="0.2652704302889942" transform="matrix(1.2347628743474797,-0.19457811833078711,0.19457811833078711,1.2347628743474797,573.9410134779082,96.27653469512677)" fill="#ffa6d5" filter="url(#bbburst-blur-3)"></use><use xlink:href="#bbburst-shape-4" width="26.52293640688043" opacity="0.6180407287740481" transform="matrix(0.9202054947171201,-0.39143562368851953,0.39143562368851953,0.9202054947171201,60.81509766999267,59.52359994257034)" fill="#2c2891" filter="url(#bbburst-blur-1)"></use><use xlink:href="#bbburst-shape-1" width="28.93435045059249" opacity="0.492845613995335" transform="matrix(0.9763701175712538,0.21610505203232985,-0.21610505203232985,0.9763701175712538,244.40891582210793,-5.71503611404637)" fill="#ffa6d5" filter="url(#bbburst-blur-2)"></use><use xlink:href="#bbburst-shape-4" width="53.448639468895294" opacity="-0.06825605069981111" transform="matrix(1.7430817317411489,0.1554544192690503,-0.1554544192690503,1.7430817317411489,79.43164308922256,42.330574001221976)" fill="#ffa6d5" filter="url(#bbburst-blur-4)"></use><use xlink:href="#bbburst-shape-8" width="21.511716449643785" opacity="0.6238078299005663" transform="matrix(0.862431178446574,-0.5061743399691984,0.5061743399691984,0.862431178446574,346.7561959656829,1.0160694110433042)" fill="none" stroke="#ffbd9b" filter="url(#bbburst-blur-1)"></use><use xlink:href="#bbburst-shape-8" width="15.204976722954735" opacity="0.6776522642119205" transform="matrix(0.7350596569000565,-0.6780024342124232,0.6780024342124232,0.7350596569000565,-5.214227096339016,43.68873687150818)" fill="none" stroke="#ffa6d5" filter="url(#bbburst-blur-1)"></use><use xlink:href="#bbburst-shape-1" width="38.22616746370263" opacity="0.44216882060243545" transform="matrix(0.9500951114532531,0.3119603808060097,-0.3119603808060097,0.9500951114532531,506.8271514425869,265.07015894525915)" fill="#ffbd9b" filter="url(#bbburst-blur-2)"></use><use xlink:href="#bbburst-shape-4" width="17.646774114560685" opacity="0.721339585659118" transform="matrix(0.9990123367546183,-0.04443366980204373,0.04443366980204373,0.9990123367546183,447.0096179978808,-100.72481574575988)" fill="#00a19d" filter="url(#bbburst-blur-1)"></use><use xlink:href="#bbburst-shape-1" width="37.25993256969563" opacity="0.3443837396270464" transform="matrix(0.9314606749046928,0.36384201393749777,-0.36384201393749777,0.9314606749046928,621.8815789383166,-259.0652280644586)" fill="#ffa6d5" filter="url(#bbburst-blur-2)"></use><use xlink:href="#bbburst-shape-6" width="45.0672750404866" opacity="0.1090468806852527" transform="matrix(1.5964270077236524,-0.716882702407099,0.716882702407099,1.5964270077236524,-119.83545843268655,126.71414099458434)" fill="#ffa6d5" filter="url(#bbburst-blur-4)"></use><use xlink:href="#bbburst-shape-4" width="16.014150142019087" opacity="0.8164735418049318" transform="matrix(0.802107753121243,-0.5971793301704197,0.5971793301704197,0.802107753121243,206.85056221674307,19.90015333871179)" fill="#2c2891"></use><use xlink:href="#bbburst-shape-6" width="32.253637124337175" opacity="0.5652829809150477" transform="matrix(0.8415642461780172,-0.540157032310814,0.540157032310814,0.8415642461780172,115.70838441923993,259.91747765280087)" fill="#ff5c58" filter="url(#bbburst-blur-1)"></use><use xlink:href="#bbburst-shape-1" width="35.0453348167299" opacity="0.59013887281433" transform="matrix(0.9501727252859712,-0.31172390367540026,0.31172390367540026,0.9501727252859712,424.6141976441618,105.9429750371554)" fill="#00a19d" filter="url(#bbburst-blur-1)"></use><use xlink:href="#bbburst-shape-6" width="34.98264511268627" opacity="0.2949747857536359" transform="matrix(0.9157583815236501,-0.850815248258507,0.850815248258507,0.9157583815236501,-272.69382634522066,24.55213672830166)" fill="#ff5c58" filter="url(#bbburst-blur-3)"></use><use xlink:href="#bbburst-shape-10" width="14.141008312680846" opacity="0.964850070071096" transform="matrix(0.9280609705763322,-0.37242829496819424,0.37242829496819424,0.9280609705763322,246.87595816559167,47.04179267427969)" fill="none" stroke="#ffa6d5"></use><use xlink:href="#bbburst-shape-4" width="30.96582566184594" opacity="0.2905147151844717" transform="matrix(1.0288081654456698,-0.7099674349660801,0.7099674349660801,1.0288081654456698,373.6822148542373,-165.08402939484685)" fill="#ffa6d5" filter="url(#bbburst-blur-3)"></use><use xlink:href="#bbburst-shape-10" width="10.227656507357036" opacity="0.9352784220222492" transform="matrix(0.859500295450417,-0.5111352483645067,0.5111352483645067,0.859500295450417,163.62112398537988,68.32057676384767)" fill="none" stroke="#00a19d"></use><use xlink:href="#bbburst-shape-8" width="30.76048003612518" opacity="0.5969312721992261" transform="matrix(0.707338533991093,0.7068749524005864,-0.7068749524005864,0.707338533991093,712.9094986899999,282.8699984705343)" fill="none" stroke="#2c2891" filter="url(#bbburst-blur-1)"></use><use xlink:href="#bbburst-shape-8" width="14.633272453578726" opacity="0.8841120217061462" transform="matrix(0.9833328656563973,0.18181439799965693,-0.18181439799965693,0.9833328656563973,432.0469957770004,45.316544246060914)" fill="none" stroke="#ffbd9b"></use><use xlink:href="#bbburst-shape-4" width="12.043917340877762" opacity="0.9289606660426877" transform="matrix(0.9686636370068534,-0.2483762435110391,0.2483762435110391,0.9686636370068534,270.9441436096346,-7.217719330292141)" fill="#2c2891"></use><use xlink:href="#bbburst-shape-1" width="14.925807570319154" opacity="0.8113161235451662" transform="matrix(0.931796164275709,0.3629819668262818,-0.3629819668262818,0.931796164275709,494.8179549046813,-48.37897892561239)" fill="#ff5c58"></use><use xlink:href="#bbburst-shape-6" width="32.1916993069096" opacity="0.15637989562305665" transform="matrix(1.2226353317061553,0.2601208289694989,-0.2601208289694989,1.2226353317061553,840.2655114126471,38.879850141615066)" fill="#ffa6d5" filter="url(#bbburst-blur-3)"></use><use xlink:href="#bbburst-shape-6" width="42.623020643532826" opacity="0.1653161886010872" transform="matrix(0.8988919886648427,-0.8686156760697821,0.8686156760697821,0.8988919886648427,-233.97311567494944,-204.85191986480584)" fill="#2c2891" filter="url(#bbburst-blur-3)"></use><use xlink:href="#bbburst-shape-10" width="15.569181601638066" opacity="0.8118578829729866" transform="matrix(0.8433728707465971,0.5373287642483359,-0.5373287642483359,0.8433728707465971,577.3382354041385,137.2413790662348)" fill="none" stroke="#ffa6d5"></use><use xlink:href="#bbburst-shape-6" width="28.451215539890626" opacity="0.419244625721086" transform="matrix(0.997488239216598,0.07083228518529555,-0.07083228518529555,0.997488239216598,375.65718957746867,-258.493214445878)" fill="#ffa6d5" filter="url(#bbburst-blur-2)"></use><use xlink:href="#bbburst-shape-4" width="44.603554836392775" opacity="-0.06097187000393989" transform="matrix(1.7499918230460862,0.00534969829391805,-0.00534969829391805,1.7499918230460862,683.848975016196,53.61276936169429)" fill="#ffa6d5" filter="url(#bbburst-blur-4)"></use><use xlink:href="#bbburst-shape-10" width="23.67310525168716" opacity="0.1732623875625886" transform="matrix(1.0852619191549255,0.6202471820429077,-0.6202471820429077,1.0852619191549255,1001.7346876353624,-105.46987916484949)" fill="none" stroke="#2c2891" filter="url(#bbburst-blur-3)"></use><use xlink:href="#bbburst-shape-4" width="33.96849078272066" opacity="0.1790463819825291" transform="matrix(1.237887481219508,0.1735931560863582,-0.1735931560863582,1.237887481219508,382.9090521933557,265.5113156973326)" fill="#ffa6d5" filter="url(#bbburst-blur-3)"></use><use xlink:href="#bbburst-shape-4" width="40.149664591019636" opacity="0.2617494578777627" transform="matrix(1.1356951665494708,-0.5222034935503304,0.5222034935503304,1.1356951665494708,-133.06511104475746,95.9643607092417)" fill="#00a19d" filter="url(#bbburst-blur-3)"></use><use xlink:href="#bbburst-shape-6" width="29.34999660069242" opacity="0.4906471545067561" transform="matrix(0.989321614956989,-0.14574890112414327,0.14574890112414327,0.989321614956989,117.37603771759768,98.70379223572235)" fill="#2c2891" filter="url(#bbburst-blur-2)"></use><use xlink:href="#bbburst-shape-8" width="23.5886361494492" opacity="0.5737891557771299" transform="matrix(0.8685903828503136,0.49553077282843444,-0.49553077282843444,0.8685903828503136,404.6442857019661,-9.65195980014073)" fill="none" stroke="#ffa6d5" filter="url(#bbburst-blur-1)"></use><use xlink:href="#bbburst-shape-1" width="24.589799995717566" opacity="0.4960443599755464" transform="matrix(0.9687223209353008,-0.24814726458642297,0.24814726458642297,0.9687223209353008,394.56466504969086,-185.0342815015969)" fill="#ffa6d5" filter="url(#bbburst-blur-2)"></use><use xlink:href="#bbburst-shape-1" width="13.282602973738516" opacity="0.8914299690737314" transform="matrix(0.8216119159916161,-0.5700472432181262,0.5700472432181262,0.8216119159916161,169.3409810346225,123.9309830185336)" fill="#ff5c58"></use><use xlink:href="#bbburst-shape-10" width="22.26136818983325" opacity="0.6971240985889442" transform="matrix(0.9285522943291119,-0.3712016119255711,0.3712016119255711,0.9285522943291119,181.34094102535383,155.16454254867182)" fill="none" stroke="#ffa6d5" filter="url(#bbburst-blur-1)"></use><use xlink:href="#bbburst-shape-10" width="22.28048065305245" opacity="0.6526541032481825" transform="matrix(0.7942749656828441,-0.6075584571788273,0.6075584571788273,0.7942749656828441,304.34726757497043,94.26016675676726)" fill="none" stroke="#2c2891" filter="url(#bbburst-blur-1)"></use><use xlink:href="#bbburst-shape-1" width="45.316388048191946" opacity="0.12936240235527563" transform="matrix(1.039349569407352,0.694444002474463,-0.694444002474463,1.039349569407352,478.4798213101383,-381.5909204045717)" fill="#ffa6d5" filter="url(#bbburst-blur-3)"></use><use xlink:href="#bbburst-shape-8" width="27.534627502948304" opacity="0.3284644641701485" transform="matrix(0.9856649332449429,-0.7687422450803927,0.7687422450803927,0.9856649332449429,-6.982207478168959,306.0379914508732)" fill="none" stroke="#ffbd9b" filter="url(#bbburst-blur-3)"></use><use xlink:href="#bbburst-shape-4" width="41.438602124870286" opacity="-0.08093850325826679" transform="matrix(1.7282622649739496,-0.2749718957768472,0.2749718957768472,1.7282622649739496,-104.69607723046991,-613.8578843378799)" fill="#ff5c58" filter="url(#bbburst-blur-4)"></use><use xlink:href="#bbburst-shape-10" width="21.440940300252326" opacity="0.7369812934395892" transform="matrix(0.976448702597046,0.21574969570441013,-0.21574969570441013,0.976448702597046,387.782479797791,86.20254879138975)" fill="none" stroke="#00a19d" filter="url(#bbburst-blur-1)"></use><use xlink:href="#bbburst-shape-10" width="29.290941554933593" opacity="0.3279180947095949" transform="matrix(1.169834695268324,-0.4404393099468609,0.4404393099468609,1.169834695268324,500.65550362945436,-132.56952041018934)" fill="none" stroke="#2c2891" filter="url(#bbburst-blur-3)"></use><use xlink:href="#bbburst-shape-6" width="32.65057817049937" opacity="0.09238247686280698" transform="matrix(1.4958139198319524,0.9083175200539563,-0.9083175200539563,1.4958139198319524,1097.96708834768,-407.8051502068753)" fill="#2c2891" filter="url(#bbburst-blur-4)"></use><use xlink:href="#bbburst-shape-6" width="26.906597513383264" opacity="0.3789265962613374" transform="matrix(0.7475866350244593,0.6641643043199521,-0.6641643043199521,0.7475866350244593,509.11962053937305,330.04700244703014)" fill="#2c2891" filter="url(#bbburst-blur-2)"></use><use xlink:href="#bbburst-shape-4" width="13.618687119541796" opacity="0.8301057348162353" transform="matrix(0.721947045444325,0.6919483099005372,-0.6919483099005372,0.721947045444325,603.6274686500482,141.0148678901714)" fill="#2c2891"></use><use xlink:href="#bbburst-shape-1" width="37.247110777329254" opacity="0.3987211553612383" transform="matrix(0.838977571448487,0.5441659991274711,-0.5441659991274711,0.838977571448487,708.2657530121396,303.15622205222826)" fill="#ffa6d5" filter="url(#bbburst-blur-2)"></use><use xlink:href="#bbburst-shape-4" width="32.2738078939087" opacity="0.02986832893049285" transform="matrix(1.5374698115250187,-0.8358747386117273,0.8358747386117273,1.5374698115250187,290.84192999891087,-559.3584175716612)" fill="#2c2891" filter="url(#bbburst-blur-4)"></use><use xlink:href="#bbburst-shape-1" width="16.293188987205234" opacity="0.7454612889234369" transform="matrix(0.8433236911590307,-0.5374059470548385,0.5374059470548385,0.8433236911590307,67.16211205990015,95.26708905428524)" fill="#ffbd9b" filter="url(#bbburst-blur-1)"></use><use xlink:href="#bbburst-shape-8" width="37.432864231984084" opacity="0.16119427083470095" transform="matrix(0.940729528077805,0.823120862937218,-0.823120862937218,0.940729528077805,875.232981699185,-331.8678690384866)" fill="none" stroke="#ffa6d5" filter="url(#bbburst-blur-3)"></use><use xlink:href="#bbburst-shape-10" width="27.380377910518053" opacity="0.4443970754180435" transform="matrix(0.7094864097949897,-0.7047191173199546,0.7047191173199546,0.7094864097949897,300.53161663196244,-34.133841021126045)" fill="none" stroke="#00a19d" filter="url(#bbburst-blur-2)"></use><use xlink:href="#bbburst-shape-4" width="23.299058759712132" opacity="0.7017133308801526" transform="matrix(0.9967377640112602,-0.08070830065013901,0.08070830065013901,0.9967377640112602,379.76740771053795,-129.86102147398913)" fill="#ffbd9b" filter="url(#bbburst-blur-1)"></use><use xlink:href="#bbburst-shape-4" width="36.019453415799276" opacity="0.12899394636307993" transform="matrix(1.212079924076771,0.30555238118864175,-0.30555238118864175,1.212079924076771,664.4524657400942,265.66497902940404)" fill="#00a19d" filter="url(#bbburst-blur-3)"></use><use xlink:href="#bbburst-shape-6" width="24.51678062186682" opacity="0.5070946422815295" transform="matrix(0.8300281024085048,-0.5577215696134916,0.5577215696134916,0.8300281024085048,91.48462287696509,-133.82622445293507)" fill="#2c2891" filter="url(#bbburst-blur-2)"></use><use xlink:href="#bbburst-shape-6" width="14.687199372179895" opacity="0.765255966675852" transform="matrix(0.8605058734051336,-0.5094405184467251,0.5094405184467251,0.8605058734051336,294.6423790702812,45.80117085023454)" fill="#00a19d" filter="url(#bbburst-blur-1)"></use><use xlink:href="#bbburst-shape-6" width="23.727192516827163" opacity="0.6095695335622046" transform="matrix(0.8480609819143206,-0.5298986421519859,0.5298986421519859,0.8480609819143206,88.39599153211284,-84.07684956257222)" fill="#ffa6d5" filter="url(#bbburst-blur-1)"></use><use xlink:href="#bbburst-shape-6" width="46.183754793302185" opacity="0.229107398014318" transform="matrix(1.0478800876468606,-0.6815037211293916,0.6815037211293916,1.0478800876468606,149.63738519878478,340.3653945195042)" fill="#ffa6d5" filter="url(#bbburst-blur-3)"></use><use xlink:href="#bbburst-shape-4" width="32.31106680722097" opacity="0.5874021888445383" transform="matrix(0.8460183345475712,0.5331538029587277,-0.5331538029587277,0.8460183345475712,711.5841306038878,201.08377188783862)" fill="#2c2891" filter="url(#bbburst-blur-1)"></use><use xlink:href="#bbburst-shape-1" width="25.67224837751872" opacity="0.635971887783337" transform="matrix(0.985422643330442,-0.1701241135513845,0.1701241135513845,0.985422643330442,176.81629612601122,88.86177352934783)" fill="#00a19d" filter="url(#bbburst-blur-1)"></use><use xlink:href="#bbburst-shape-6" width="21.728357212035068" opacity="0.7222106522703975" transform="matrix(0.9753351625987585,0.2207290660480699,-0.2207290660480699,0.9753351625987585,481.6942404526506,132.40935620843675)" fill="#00a19d" filter="url(#bbburst-blur-1)"></use><use xlink:href="#bbburst-shape-4" width="32.428582930126154" opacity="0.0022089904394358983" transform="matrix(1.6435207752595242,0.601115181384011,-0.601115181384011,1.6435207752595242,342.80067823465015,-625.1243401963841)" fill="#ffa6d5" filter="url(#bbburst-blur-4)"></use><use xlink:href="#bbburst-shape-4" width="30.15120788720492" opacity="0.16312646993945956" transform="matrix(0.9370572908096332,-0.8272989989964394,0.8272989989964394,0.9370572908096332,-17.482416716857756,-331.8818092560636)" fill="#ff5c58" filter="url(#bbburst-blur-3)"></use><use xlink:href="#bbburst-shape-4" width="41.533463690020696" opacity="0.4376649954670786" transform="matrix(0.7398649573795637,-0.6727554123466688,0.6727554123466688,0.7398649573795637,298.3169843293513,293.07873392657035)" fill="#2c2891" filter="url(#bbburst-blur-2)"></use><use xlink:href="#bbburst-shape-10" width="15.465061621299864" opacity="0.8540456506382594" transform="matrix(0.9000060868423235,-0.43587732637379534,0.43587732637379534,0.9000060868423235,268.1401823370496,86.59350576915563)" fill="none" stroke="#2c2891"></use><use xlink:href="#bbburst-shape-10" width="20.534263660797055" opacity="0.589820453143679" transform="matrix(0.8722100858945001,0.48913144047782164,-0.48913144047782164,0.8722100858945001,721.9787562409942,-79.48086753905591)" fill="none" stroke="#ffbd9b" filter="url(#bbburst-blur-1)"></use><use xlink:href="#bbburst-shape-6" width="25.556001739581024" opacity="0.5172645524990781" transform="matrix(0.9970153008265222,0.07720420919742312,-0.07720420919742312,0.9970153008265222,238.3414072236156,-121.6984794815159)" fill="#2c2891" filter="url(#bbburst-blur-2)"></use><use xlink:href="#bbburst-shape-10" width="13.18856383210103" opacity="0.8495774879029023" transform="matrix(0.8241514979322412,0.5663694098872599,-0.5663694098872599,0.8241514979322412,688.0447613973731,76.70911301406079)" fill="none" stroke="#00a19d"></use><use xlink:href="#bbburst-shape-4" width="39.796541160177334" opacity="0.2117431629776343" transform="matrix(1.2023933294956086,0.34168740273013387,-0.34168740273013387,1.2023933294956086,732.9066956239386,190.40299798967123)" fill="#ffbd9b" filter="url(#bbburst-blur-3)"></use><use xlink:href="#bbburst-shape-1" width="18.994230597374354" opacity="0.8133272143329804" transform="matrix(0.9273024515148867,-0.37431292178400866,0.37431292178400866,0.9273024515148867,268.7334280590069,112.11455709928924)" fill="#2c2891"></use><use xlink:href="#bbburst-shape-8" width="47.68512711863088" opacity="0.18889436271278615" transform="matrix(1.0276353163251795,-0.7116640054416469,0.7116640054416469,1.0276353163251795,-167.06412891544832,264.2009975529467)" fill="none" stroke="#2c2891" filter="url(#bbburst-blur-3)"></use><use xlink:href="#bbburst-shape-4" width="14.29386258539024" opacity="0.8757566308031197" transform="matrix(0.7267345156001823,-0.6869184404537183,0.6869184404537183,0.7267345156001823,133.23171576878394,59.89221062692803)" fill="#ffa6d5"></use><use xlink:href="#bbburst-shape-1" width="13.60891823271222" opacity="0.9331535343567721" transform="matrix(0.9470740949082179,0.3210150444352723,-0.3210150444352723,0.9470740949082179,551.8464133453944,22.383225676519487)" fill="#ffbd9b"></use><use xlink:href="#bbburst-shape-10" width="36.575322092909694" opacity="0.38992891292697207" transform="matrix(0.7190734285417666,-0.6949341007355941,0.6949341007355941,0.7190734285417666,-102.23515231891233,300.57809025518344)" fill="none" stroke="#00a19d" filter="url(#bbburst-blur-2)"></use><use xlink:href="#bbburst-shape-6" width="43.53696996516484" opacity="0.10815932965266584" transform="matrix(1.3506757100449935,-1.1127331783920402,1.1127331783920402,1.3506757100449935,-424.23485448075365,-312.88809028679015)" fill="#ffbd9b" filter="url(#bbburst-blur-4)"></use><use xlink:href="#bbburst-shape-10" width="36.60613560812656" opacity="0.3275226405874312" transform="matrix(1.2250133921414927,0.24868089808827934,-0.24868089808827934,1.2250133921414927,659.1050352593127,-336.2841122489313)" fill="none" stroke="#2c2891" filter="url(#bbburst-blur-3)"></use><use xlink:href="#bbburst-shape-4" width="40.575812120384136" opacity="0.04073424481856569" transform="matrix(1.7499879857564034,-0.006484574638757068,0.006484574638757068,1.7499879857564034,711.5251827490832,-46.61393437159586)" fill="#00a19d" filter="url(#bbburst-blur-4)"></use><use xlink:href="#bbburst-shape-8" width="9.840335610718187" opacity="0.9029113051308457" transform="matrix(0.830213790864733,0.5574451196826548,-0.5574451196826548,0.830213790864733,650.8540126340808,35.38386805715322)" fill="none" stroke="#ff5c58"></use><use xlink:href="#bbburst-shape-10" width="39.821729635297714" opacity="0.3703026759602446" transform="matrix(0.9685336818797531,-0.2488825165905579,0.2488825165905579,0.9685336818797531,16.154019830718894,-82.78476948428732)" fill="none" stroke="#ffbd9b" filter="url(#bbburst-blur-2)"></use><use xlink:href="#bbburst-shape-10" width="34.63456268751548" opacity="0.37915931969878647" transform="matrix(0.9985806955302541,0.0532596893937066,-0.0532596893937066,0.9985806955302541,128.92442219277376,48.42581442062641)" fill="none" stroke="#ffa6d5" filter="url(#bbburst-blur-2)"></use><use xlink:href="#bbburst-shape-1" width="34.48009160949905" opacity="0.2506307079651555" transform="matrix(1.202765516901254,0.340374957000745,-0.340374957000745,1.202765516901254,520.9978345561109,-424.0905460906338)" fill="#ffa6d5" filter="url(#bbburst-blur-3)"></use><use xlink:href="#bbburst-shape-4" width="35.368818893976716" opacity="0.17714354861184323" transform="matrix(1.2499766412017153,0.00764175700204029,-0.00764175700204029,1.2499766412017153,16.147338414359503,-36.60851546939068)" fill="#ffa6d5" filter="url(#bbburst-blur-3)"></use><use xlink:href="#bbburst-shape-4" width="42.80817605330867" opacity="0.07014997855215266" transform="matrix(1.7264794311076062,0.2859523980706519,-0.2859523980706519,1.7264794311076062,119.36376675055593,-80.11726508484116)" fill="#ffa6d5" filter="url(#bbburst-blur-4)"></use><use xlink:href="#bbburst-shape-4" width="17.25295002652998" opacity="0.5807150668789172" transform="matrix(0.782618621983425,-0.6225014799378109,0.6225014799378109,0.782618621983425,160.04550568466823,-95.68171651131277)" fill="#ffa6d5" filter="url(#bbburst-blur-1)"></use><use xlink:href="#bbburst-shape-6" width="16.493658499975858" opacity="0.8615873610739969" transform="matrix(0.893988494817595,-0.44808991411743576,0.44808991411743576,0.893988494817595,164.11538831666547,8.003258411152501)" fill="#00a19d"></use><use xlink:href="#bbburst-shape-8" width="37.74787383735241" opacity="0.17217103431306158" transform="matrix(1.1357756550711753,0.522028410479394,-0.522028410479394,1.1357756550711753,225.24197412415543,-151.53137134980915)" fill="none" stroke="#ffa6d5" filter="url(#bbburst-blur-3)"></use><use xlink:href="#bbburst-shape-10" width="35.029320871669675" opacity="0.30059990950651094" transform="matrix(1.1928731613832497,0.37356876321707055,-0.37356876321707055,1.1928731613832497,432.949667389604,-383.55631177820794)" fill="none" stroke="#2c2891" filter="url(#bbburst-blur-3)"></use><use xlink:href="#bbburst-shape-6" width="13.00351862734214" opacity="0.8793614941528527" transform="matrix(0.9832465199215268,-0.1822807753500257,0.1822807753500257,0.9832465199215268,266.4498226319847,5.7450743592645495)" fill="#ff5c58"></use><use xlink:href="#bbburst-shape-4" width="25.75039564723394" opacity="0.7412628205442162" transform="matrix(0.9998632163357023,0.01653930527031477,-0.01653930527031477,0.9998632163357023,500.3444779995571,46.6863873524826)" fill="#2c2891" filter="url(#bbburst-blur-1)"></use><use xlink:href="#bbburst-shape-1" width="37.82449190110197" opacity="0.4854755166990118" transform="matrix(0.9356565825541929,0.3529118296728075,-0.3529118296728075,0.9356565825541929,754.947390963442,23.454301308123434)" fill="#ffbd9b" filter="url(#bbburst-blur-2)"></use><use xlink:href="#bbburst-shape-8" width="14.085140324597935" opacity="0.8094928503806335" transform="matrix(0.9995563936094677,0.02978281374274362,-0.02978281374274362,0.9995563936094677,320.509873713633,-15.266215884370126)" fill="none" stroke="#ffa6d5"></use><use xlink:href="#bbburst-shape-4" width="44.872856070644346" opacity="0.4070787145181939" transform="matrix(0.9982274059815446,0.05951509008105907,-0.05951509008105907,0.9982274059815446,652.0590743641234,90.86649713205492)" fill="#2c2891" filter="url(#bbburst-blur-2)"></use><use xlink:href="#bbburst-shape-4" width="32.90938041856795" opacity="0.3310936928867826" transform="matrix(1.0214233598409534,-0.7205513999509114,0.7205513999509114,1.0214233598409534,-146.45263526448863,-176.43044847774698)" fill="#2c2891" filter="url(#bbburst-blur-3)"></use><use xlink:href="#bbburst-shape-10" width="27.022047016781734" opacity="0.4808014394951824" transform="matrix(0.9669664178559378,0.25490379898866894,-0.25490379898866894,0.9669664178559378,707.60240502621,-72.42072315751375)" fill="none" stroke="#2c2891" filter="url(#bbburst-blur-2)"></use></svg>